<?xml version="1.0" encoding="UTF-8" standalone="no"?>
<!-- Created with Inkscape (http://www.inkscape.org/) -->

<svg
   width="512mm"
   height="512mm"
   viewBox="0 0 512 512"
   version="1.1"
   id="svg461"
   xmlns:inkscape="http://www.inkscape.org/namespaces/inkscape"
   xmlns:sodipodi="http://sodipodi.sourceforge.net/DTD/sodipodi-0.dtd"
   xmlns="http://www.w3.org/2000/svg"
   xmlns:svg="http://www.w3.org/2000/svg">
  <sodipodi:namedview
     id="namedview463"
     pagecolor="#ffffff"
     bordercolor="#000000"
     borderopacity="0.25"
     inkscape:showpageshadow="2"
     inkscape:pageopacity="0.0"
     inkscape:pagecheckerboard="0"
     inkscape:deskcolor="#d1d1d1"
     inkscape:document-units="mm"
     showgrid="false" />
  <defs
     id="defs458" />
  <g
     inkscape:label="Layer 1"
     inkscape:groupmode="layer"
     id="layer1"
     transform="translate(561.59785,-291.88766)">
    <g
       id="g1380"
       transform="matrix(1,0,0,0.99465613,-31.156879,175.20633)">
      <g
         id="g1289"
         transform="matrix(0.6298368,0,0,0.63068925,-201.06463,76.899335)">
        <g
           id="g1303">
          <path
             d="m -239.40667,602.068 c 9.57792,-15.03721 17.27553,-27.08606 23.64317,-36.80581 49.70991,-75.87566 108.86722,-47.23687 141.816662,-119.23503 l 4.60375,-10.0624 5.831417,9.06049 c 16.259527,25.28611 91.559942,122.25809 177.263771,174.16183 36.49486,22.09823 74.79242,35.91234 110.91333,32.14761 C 60.623771,613.02386 34.729882,466.33845 -44.024227,337.58317 l -0.377472,-0.61588 -0.0071,0.009 c 17.04975,24.65287 33.238722,52.45023 49.8933601,81.06733 C 64.190354,518.9318 128.97446,630.25137 261.25907,641.4935 l 28.69495,2.43753 -26.89225,12.54329 c -49.13489,22.92231 -103.86836,7.49909 -154.88708,-23.3994 -80.073502,-48.49033 -151.359306,-135.57341 -175.852667,-170.0935 -17.832916,32.11726 -43.180003,45.13765 -67.712163,57.72865 -35.60939,18.2858 -69.32789,35.60006 -69.32789,117.56086 v 4.53675 c -45.53655,31.11969 -91.07311,62.23504 -136.61319,93.34605 h -74.87355 -5.37634 c 1.68628,-17.38365 13.71953,-30.85945 28.31395,-30.85945 47.05702,0 100.27708,-53.29599 125.37722,-105.21708 -13.8677,-45.38053 -9.65553,-84.61085 1.86266,-119.02684 -5.43278,2.60668 -10.01889,3.42642 -13.79714,3.27461 0.50095,3.09246 0.93134,6.26298 1.29117,9.51591 3.82411,34.71959 -2.70581,72.84826 -21.8828,99.12325 -5.21406,-69.00547 -4.0252,-64.26053 -54.5712,-126.50858 -1.36172,-1.51803 -2.67053,-3.01004 -3.95111,-4.48904 -18.90183,-9.52024 -36.77003,-24.01529 -52.53214,-41.39895 -15.113,-16.66367 -28.30689,-35.99474 -38.62563,-56.14121 l -0.37748,0.0607 c -2.61761,0.40336 -5.50333,0.7113 -8.61836,0.90214 -12.83476,0.78071 -27.21716,-1.01057 -39.00311,-7.51209 -12.69471,-7.00031 -22.36611,-19.17927 -24.38364,-38.90937 -0.127,-1.24479 -0.22543,-2.69777 -0.2921,-4.37628 l -0.18415,-4.57145 3.21803,-2.40283 c 0.0681,-0.0477 22.3901,-16.76776 37.33694,-24.35359 4.99216,-10.96454 18.43264,-18.71519 32.61431,-22.9093 12.01914,-3.5522 24.94844,-4.69723 33.48567,-3.09245 5.87375,-13.59291 22.83883,-45.67546 53.07894,-48.55105 l 5.77497,-0.55083 0.91017,7.10006 c 0.0141,0.10843 4.90361,35.44391 -19.87197,64.36896 10.43869,15.19335 21.76286,21.39994 33.53858,21.95944 13.73011,0.65059 28.54678,-6.08515 43.51161,-15.33648 106.4895,-65.83494 171.16777,-45.57136 222.892049,10.11011 l -0.0035,0.009 c -46.531389,-44.56946 -114.180049,-55.59473 -217.215849,3.70834 -16.62289,10.27926 -33.35514,17.74798 -49.62878,16.97595 -16.87689,-0.79805 -32.78011,-10.20552 -46.7995,-33.88251 l -3.53836,-5.97237 4.67078,-4.61483 c 16.8028,-16.58993 19.94252,-36.45883 20.27413,-47.17614 -26.20786,7.58583 -38.33988,43.77575 -38.37869,43.88852 l -2.44475,7.11307 c -13.32089,-6.82682 -23.23394,-5.183 -37.34505,-1.01058 -7.02028,2.0732 -21.83695,7.25187 -24.86943,16.36007 l 23.88518,14.72059 -32.24178,-7.60752 c -10.55581,4.86638 -22.58589,14.28686 -29.70141,19.45251 1.64853,12.67775 8.24653,20.67996 16.83878,25.42056 9.78042,5.39119 22.11635,6.85284 33.2793,6.17623 2.50119,-0.1518 5.08705,-0.4424 7.6835,-0.84576 9.51088,-1.47033 54.58883,-14.78565 57.85555,-16.93692 -12.6365,9.78481 -25.91153,21.82932 -40.04028,27.7323 -0.89958,0.37734 -1.81328,0.73734 -2.73755,1.07998 9.3098,17.25787 20.82094,33.73504 33.83844,48.0913 5.90903,6.51453 12.12497,12.58667 18.58081,18.0993 -19.00414,-32.40351 -15.38817,-51.3399 -19.33928,-65.78724 32.46966,94.29591 98.55552,97.38836 105.09955,128.57744 -0.85725,-37.79036 1.36878,-54.91378 -13.28561,-88.02426 74.89825,136.0028 34.38525,5.85961 124.41766,-44.56513 -81.78799,65.66146 -66.20227,243.70945 -51.79483,244.72437"
             style="fill:#211916;fill-opacity:1;fill-rule:nonzero;stroke:none;stroke-width:0.0391163"
             id="path18" />
          <path
             d="m -44.024227,337.58317 -32.444972,-41.21244 c -46.531391,-44.56946 -114.180051,-55.59473 -217.215851,3.70834 -16.62289,10.27926 -33.35514,17.74798 -49.62878,16.97595 -16.87689,-0.79805 -32.78011,-10.20552 -46.7995,-33.88251 l -3.53836,-5.97237 4.67078,-4.61483 c 16.8028,-16.58993 19.94252,-36.45883 20.27413,-47.17614 -26.20786,7.58583 -38.33988,43.77575 -38.37869,43.88852 l -2.44475,7.11307 c -13.32089,-6.82682 -23.23394,-5.183 -37.34505,-1.01058 -7.02028,2.0732 -21.83695,7.25187 -24.86943,16.36007 l 23.88518,14.72059 -32.24178,-7.60752 c -10.55581,4.86638 -22.58589,14.28686 -29.70141,19.45251 1.64853,12.67775 8.24653,20.67996 16.83878,25.42056 9.78042,5.39119 22.11635,6.85284 33.2793,6.17623 2.50119,-0.1518 5.08705,-0.4424 7.6835,-0.84576 9.51088,-1.47033 54.58883,-14.78565 57.85555,-16.93692 -12.6365,9.78481 -25.91153,21.82932 -40.04028,27.7323 -0.89958,0.37734 -1.81328,0.73734 -2.73755,1.07998 9.3098,17.25787 20.82094,33.73504 33.83844,48.0913 5.90903,6.51453 12.12497,12.58667 18.58081,18.0993 -19.00414,-32.40351 -15.38817,-51.3399 -19.33928,-65.78724 32.46966,94.29591 98.55552,97.38836 105.09955,128.57744 -0.85725,-37.79036 1.36878,-54.91378 -13.28561,-88.02426 74.89825,136.0028 34.38525,5.85961 124.41766,-44.56513 -81.78799,65.66146 -66.20227,243.70945 -51.79483,244.72437 9.57792,-15.03721 17.27553,-27.08606 23.64317,-36.80581 49.70991,-75.87566 108.86722,-47.23687 141.816662,-119.23503 l 4.60375,-10.0624 5.831417,9.06049 c 16.259527,25.28611 91.559942,122.25809 177.263771,174.16183 36.49486,22.09823 74.79242,35.91234 110.91333,32.14761 C 60.623771,613.02386 34.729882,466.33845 -44.024227,337.58317"
             style="fill:#d6681c;fill-opacity:1;fill-rule:evenodd;stroke:none;stroke-width:0.0391163"
             id="path20" />
          <path
             d="m -509.80271,318.32583 30.14345,-12.46522 31.79974,0.62023 -32.24178,-7.60752 c -10.55581,4.86638 -22.58589,14.28686 -29.70141,19.45251"
             style="fill:#fbcb32;fill-opacity:1;fill-rule:evenodd;stroke:none;stroke-width:0.0391163"
             id="path22" />
          <path
             d="m -462.24227,289.8562 c 9.55322,-9.64602 45.3143,-12.49559 55.42138,-8.14967 0,0 14.66498,-43.69768 38.11411,-56.29736 -18.96533,5.49094 -30.55761,25.95837 -35.53177,36.89255 -1.90147,4.17676 -2.83634,6.96561 -2.84692,6.99597 l -2.44475,7.11307 c -13.32089,-6.82682 -23.23394,-5.183 -37.34505,-1.01058 -7.02028,2.0732 -21.83695,7.25187 -24.86943,16.36007 l 23.88518,14.72059 -14.38275,-16.62464"
             style="fill:#fbcb32;fill-opacity:1;fill-rule:evenodd;stroke:none;stroke-width:0.0391163"
             id="path24" />
          <path
             d="m -419.02347,364.80802 c 6.97795,-14.48204 24.87789,-32.66808 24.87789,-32.66808 -12.6365,9.78481 -25.91153,21.82932 -40.04028,27.7323 -0.89958,0.37734 -1.81328,0.73734 -2.73755,1.07998 9.3098,17.25787 20.82094,33.73504 33.83844,48.0913 5.90903,6.51453 12.12497,12.58667 18.58081,18.0993 -19.00414,-32.40351 -15.38817,-51.3399 -19.33928,-65.78724 -3.53483,9.97131 -3.15031,27.83206 -3.15031,27.83206 -11.14072,-9.0388 -12.02972,-24.37962 -12.02972,-24.37962"
             style="fill:#a5391f;fill-opacity:1;fill-rule:evenodd;stroke:none;stroke-width:0.0391163"
             id="path26" />
          <path
             d="m -314.23083,445.33754 c -10.72092,-9.22531 -43.79383,-1.64816 -89.61261,-83.98196 32.46966,94.29591 98.55552,97.38836 105.09955,128.57744 -0.85725,-37.79036 1.36878,-54.91378 -13.28561,-88.02426 7.7717,22.85725 -2.20133,43.42878 -2.20133,43.42878"
             style="fill:#a5391f;fill-opacity:1;fill-rule:evenodd;stroke:none;stroke-width:0.0391163"
             id="path28" />
          <path
             d="m -187.61184,357.34363 c -54.42655,9.93228 -80.73672,106.55295 -124.41766,44.56513 74.89825,136.0028 34.38525,5.85961 124.41766,-44.56513"
             style="fill:#a5391f;fill-opacity:1;fill-rule:evenodd;stroke:none;stroke-width:0.0391163"
             id="path30" />
          <path
             d="m -215.2555,531.72666 c -14.1605,-41.28184 -2.58939,-130.16054 27.64366,-174.38303 -81.78799,65.66146 -66.20227,243.70945 -51.79483,244.72437 9.57792,-15.03721 17.27553,-27.08606 23.64317,-36.80581 49.70991,-75.87566 108.86722,-47.23687 141.816662,-119.23503 l 4.60375,-10.0624 c -37.278022,51.32255 -105.399412,37.17448 -145.912412,95.7619"
             style="fill:#a5391f;fill-opacity:1;fill-rule:evenodd;stroke:none;stroke-width:0.0391163"
             id="path32" />
          <path
             d="m -393.65169,277.20014 c 0,0 -3.5172,51.2705 59.75702,54.01163 l -4.67783,-6.02442 c 75.94953,-5.89431 181.32072,-99.42253 266.453051,-23.29531 l -4.34975,-5.52131 c -46.531391,-44.56946 -114.180051,-55.59473 -217.215851,3.70834 -16.62289,10.27926 -33.35514,17.74798 -49.62878,16.97595 -16.87689,-0.79805 -32.78011,-10.20552 -46.7995,-33.88251 l -3.53836,-5.97237"
             style="fill:#fbcb32;fill-opacity:1;fill-rule:evenodd;stroke:none;stroke-width:0.0391163"
             id="path34" />
          <path
             d="M -60.650643,316.46082 C -2.0789503,398.4303 -26.731061,462.54336 75.824965,553.61236 29.11366,491.71129 1.297133,411.68056 -44.024227,337.58317 l -16.626416,-21.12235"
             style="fill:#fbcb32;fill-opacity:1;fill-rule:evenodd;stroke:none;stroke-width:0.0391163"
             id="path36" />
          <path
             d="m -465.08566,332.74282 c -36.53755,6.02442 -44.71705,-14.41699 -44.71705,-14.41699 1.64853,12.67775 8.24653,20.67996 16.83878,25.42056 9.78042,5.39119 22.11635,6.85284 33.2793,6.17623 2.50119,-0.1518 5.08705,-0.4424 7.6835,-0.84576 9.51088,-1.47033 54.58883,-14.78565 57.85555,-16.93692 -38.89728,12.27005 -86.98018,3.88617 -86.98018,3.88617 l 16.0401,-3.28329"
             style="fill:#a5391f;fill-opacity:1;fill-rule:evenodd;stroke:none;stroke-width:0.0391163"
             id="path38" />
          <path
             d="m -368.70678,225.40917 c 0,0 -7.06966,19.58697 -14.86958,30.82042 l 3.11856,-0.68529 c 0,0 -8.65717,16.76343 -12.62239,21.092 l 4.09928,-4.05099 c 16.8028,-16.58993 19.94252,-36.45883 20.27413,-47.17614"
             style="fill:#a5391f;fill-opacity:1;fill-rule:evenodd;stroke:none;stroke-width:0.0391163"
             id="path40" />
        </g>
      </g>
      <rect
         style="fill:#000000;fill-opacity:0.00368383;stroke-width:0.183165"
         id="rect695"
         width="512"
         height="89.5"
         x="-530.44092"
         y="542.55896" />
      <rect
         style="fill:#000000;fill-opacity:0.00368383;stroke-width:0.183165"
         id="rect695-9"
         width="512"
         height="89.5"
         x="-530.44092"
         y="117.3082" />
    </g>
  </g>
</svg>
